{"asset":{"version":"2.0","generator":"babylon.js glTF exporter for Autodesk MAYA 2022.2 v20220210.4"},"scene":0,"scenes":[{"nodes":[0]}],"nodes":[{"mesh":0,"name":"pCube1"}],"meshes":[{"primitives":[{"attributes":{"POSITION":1,"NORMAL":2,"TEXCOORD_0":3},"indices":0}],"name":"pCube1"}],"accessors":[{"bufferView":0,"componentType":5123,"count":6,"type":"SCALAR","name":"accessorIndices"},{"bufferView":1,"componentType":5126,"count":4,"max":[0.005,0.005,0.005],"min":[0.005,-0.005,-0.005],"type":"VEC3","name":"accessorPositions"},{"bufferView":1,"byteOffset":48,"componentType":5126,"count":4,"type":"VEC3","name":"accessorNormals"},{"bufferView":2,"componentType":5126,"count":4,"type":"VEC2","name":"accessorUVs"}],"bufferViews":[{"buffer":0,"byteLength":12,"name":"bufferViewScalar"},{"buffer":0,"byteOffset":12,"byteLength":96,"byteStride":12,"name":"bufferViewFloatVec3"},{"buffer":0,"byteOffset":108,"byteLength":32,"byteStride":8,"name":"bufferViewFloatVec2"}],"buffers":[{"uri":"plane.bin","byteLength":140}]}